<?xml version="1.0" encoding="utf-8"?>
<!-- Generator: Adobe Illustrator 18.1.0, SVG Export Plug-In . SVG Version: 6.00 Build 0)  -->
<svg version="1.1" id="Layer_1" xmlns="http://www.w3.org/2000/svg" xmlns:xlink="http://www.w3.org/1999/xlink" x="0px" y="0px"
	 viewBox="0 0 500 500" enable-background="new 0 0 500 500" xml:space="preserve">
<g>
	<path fill="#010101" d="M387.8,80.2C344.6,27,297.7,0,248.1,0c-84.2,0-144.4,77.4-146.9,80.7c-0.1,0.2-0.4,0.5-0.5,0.7
		C20.3,231.1,51.7,492.7,52,495.4c0.2,2.2,1.9,4,4.1,4.5c0.4,0.1,0.7,0.1,1.1,0.1c1.8,0,3.5-0.9,4.5-2.5l32.3-52.3l49.6,23
		c2,0.9,4.3,0.5,5.9-1.1l29.4-29.4l40,28.8c1.9,1.4,4.5,1.3,6.3-0.1l30.8-24.5l39.5,22.7c2.2,1.3,4.9,0.8,6.6-1.2l23-27l43.3,23.3
		c2,1.1,4.3,0.7,6-0.7l33.9-31l38,25.8c1.6,1.1,3.8,1.2,5.5,0.2s2.8-2.8,2.7-4.8C443.6,140.6,394.2,86,387.8,80.2z M410.5,416.9
		c-2-1.4-4.7-1.2-6.5,0.5l-34.2,31.4l-43.8-23.5c-2.1-1.2-4.8-0.7-6.5,1.2l-22.9,26.9L258,431c-1.9-1.1-4.2-0.9-5.9,0.5l-30.5,24.2
		l-40.4-29c-2.1-1.5-4.9-1.3-6.8,0.6L144.5,457l-50.4-23.4c-2.3-1.1-5.3-0.2-6.7,2l-26.7,43.1c-5.3-57.5-18.7-265.7,49-392
		c4.2-5.3,62-76.2,138.4-76.2c46.3,0,90.7,25.8,131.9,76.7c0.2,0.4,0.6,0.6,0.8,0.8c0.5,0.4,50.8,42.7,62.5,351.2L410.5,416.9z"/>
	<path fill="#010101" d="M195.4,179.8l-12.6,17.5c-1.6,2.3-1.2,5.6,1.2,7.3c0.9,0.7,2,0.9,3.1,0.9c1.6,0,3.3-0.7,4.2-2.2l12.6-17.5
		l13.7,9.9c0.9,0.7,2,0.9,3.1,0.9c1.6,0,3.3-0.7,4.2-2.2c1.6-2.3,1.2-5.6-1.2-7.3l-13.7-9.9l10.5-14.6c1.6-2.3,1.2-5.6-1.2-7.3
		c-2.3-1.6-5.6-1.2-7.3,1.2l-10.5,14.6l-18.1-12.9c-2.3-1.6-5.6-1.2-7.3,1.2c-1.6,2.3-1.2,5.6,1.2,7.3L195.4,179.8z"/>
	<path fill="#010101" d="M299.8,182.9c-4.2,6.1-8.6,10.9-12.1,12.7c-2.6,1.2-3.8,4.3-2.5,6.9c0.9,1.9,2.8,3.1,4.7,3.1
		c0.7,0,1.5-0.1,2.2-0.5c5.4-2.5,10.8-8.6,15.9-15.5c4.5,3.4,8.8,6,12.1,6.9c0.5,0.1,0.9,0.2,1.4,0.2c2.2,0,4.3-1.5,5-3.8
		c0.8-2.8-0.8-5.6-3.6-6.5c-2.2-0.6-5.5-2.7-9.3-5.6c6.7-11,11.6-22,12.6-24.1c1.2-2.7,0-5.8-2.7-6.9c-2.6-1.2-5.8,0-6.9,2.7
		c-2.7,6.1-6.7,14.1-11.2,21.5c-6.6-5.9-13.5-12.7-18.3-17.7c-2-2.1-5.3-2.2-7.4-0.2c-2.1,2-2.2,5.3-0.2,7.4
		C282.2,166.2,290.6,175,299.8,182.9z"/>
	<path fill="#010101" d="M362.1,240.1l-182.5,26.1c-1.8,0.2-3.3,1.4-4,3.1c-0.9,2-22.2,50.5,0.4,87.1c0.9,1.5,2.7,2.5,4.5,2.5
		c0.2,0,0.5,0,0.7,0l182.5-24c2.6-0.4,4.6-2.6,4.6-5.2v-84.4c0-1.5-0.7-2.9-1.8-4C365.1,240.4,363.7,240,362.1,240.1z M357.6,282.1
		l-28.7-26.5l28.7-4.1V282.1z M315.2,257.5c-7.2,12-15.7,26.9-18.8,33.8c-5-3.5-18.2-14.8-31.4-26.7L315.2,257.5z M248.5,267
		l-22.9,30.3L191,275.2L248.5,267z M183.9,276.8l41,26.2c0.5,0.2,0.9,0.5,1.4,0.5c0.8,0,1.5-0.4,2.1-1.1l27.5-36.4l2.5-0.4
		c36.6,33.3,38.9,32.4,40.5,31.6c1.1-0.5,1.6-1.4,1.6-2.3c0.5-2.7,10.9-21,21.3-38.3l0.5-0.1l35.3,32.8v35.9l-4.7,0.6l-46.1-23.1
		c-1.1-0.6-2.3-0.2-3.2,0.6l-21.3,23.7l-52.3-9.9c-0.9-0.1-1.9,0.1-2.5,0.8l-24.7,27.6l-19.8,2.6C169.1,321.4,180,287.2,183.9,276.8
		z M343.7,326.9L211,344.3l19.6-22l52.3,9.9c0.9,0.1,1.9-0.1,2.5-0.8l20.9-23.3L343.7,326.9z"/>
</g>
</svg>
