<?xml version="1.0" encoding="utf-8"?>
<!-- Generator: Adobe Illustrator 18.1.0, SVG Export Plug-In . SVG Version: 6.00 Build 0)  -->
<svg version="1.1" id="Layer_1" xmlns="http://www.w3.org/2000/svg" xmlns:xlink="http://www.w3.org/1999/xlink" x="0px" y="0px"
	 viewBox="0 0 500 500" enable-background="new 0 0 500 500" xml:space="preserve">
<g>
	
		<rect x="170.8" y="394.7" transform="matrix(-0.5972 0.8021 -0.8021 -0.5972 637.9631 476.7659)" fill="#010101" width="56.9" height="7.7"/>
	
		<rect x="134.2" y="330" transform="matrix(-0.774 -0.6332 0.6332 -0.774 14.1487 734.0834)" fill="#010101" width="7.8" height="69.1"/>
	<path fill="#010101" d="M260.5,471.6c-7.1,5.5-23.6,2.3-29.4,0.6l-2.8-0.8l-1.6,2.5c-7.6,11.9-15.9,18.1-25,18.2
		c-0.1,0-0.4,0-0.5,0c-16.4,0-30.1-19.2-30.4-19.4l-1.9-2.7l-3,1.4c-21.1,10.4-36.7,12.3-46.1,5.7c-12.8-9-10.6-31.7-10.6-32
		l0.5-4.3l-4.5,0.1c-24.2,0.5-43.9-9.9-49.2-25.7C51.9,403,58,389.8,72.6,379c18.5-13.5,26.7-13,29.9-11.5c4.3,2.1,4.7,8.3,4.7,8.4
		l7.7-0.2c0-0.5-0.5-11-9-15.2c-8.7-4.2-21.1-0.2-38,12.2c-17.6,12.9-24.7,29.3-19.3,45.1c6.2,18.1,27,30.3,52.6,31
		c-0.1,8.2,1.3,25.8,14.1,34.9c11.5,8,28.6,6.8,51.1-3.6c4.9,6,18.2,20,34.6,20c0.2,0,0.5,0,0.7,0c11-0.2,21-6.8,29.7-19.4
		c6.9,1.7,24,4.8,33.6-2.7c3.1-2.4,6.9-7.1,6.5-15.7l-7.7,0.2C264.1,466.6,262.9,469.6,260.5,471.6z"/>
	<path fill="#010101" d="M401.7,89.8c-4.5-2.7-9.5-4.1-14.8-4.1c-11.6,0-22.7,6.6-29.2,17.2c-9.6,16-5.7,36.3,8.9,45.1
		c4.5,2.7,9.5,4.1,14.8,4.1c11.6,0,22.7-6.6,29.2-17.2C420.3,118.9,416.3,98.6,401.7,89.8z M403.9,130.8
		c-5.1,8.3-13.6,13.5-22.4,13.5c-4,0-7.6-1-10.9-3c-11-6.6-13.7-22.1-6.3-34.4c5.1-8.3,13.6-13.5,22.4-13.5c4,0,7.6,1,10.9,3
		C408.6,103.1,411.4,118.5,403.9,130.8z"/>
	<path fill="#010101" d="M422.1,141.8c13.6-22.7,7.7-51.4-13.1-64c-6.5-3.9-14-5.9-21.6-5.9c-16.4,0-32.2,9.3-41.1,24.1
		c-13.6,22.7-7.7,51.4,13.1,64c6.5,3.9,14,6,21.6,6C397.4,165.9,413.2,156.8,422.1,141.8z M381,158.2c-6.3,0-12.3-1.7-17.6-4.8
		c-17.2-10.4-21.9-34.4-10.5-53.3c7.6-12.5,20.9-20.4,34.5-20.4c6.3,0,12.3,1.7,17.6,4.8c17.2,10.4,21.9,34.4,10.5,53.3
		C407.9,150.4,394.7,158.2,381,158.2z"/>
	<path fill="#010101" d="M327.3,222.8c-5.1-4.1-11.3-6.3-18.2-6.3c-10,0-20,4.9-26.8,13.3c-11.7,14.5-10.5,34.9,2.7,45.3
		c5.1,4.1,11.3,6.3,18.2,6.3c10,0,20-4.9,26.8-13.3C341.7,253.8,340.5,233.5,327.3,222.8z M323.9,263.4c-5.2,6.5-13,10.4-20.7,10.4
		c-4.9,0-9.5-1.6-13.3-4.6c-9.8-8-10.5-23.4-1.4-34.5c5.2-6.5,13-10.4,20.7-10.4c4.9,0,9.5,1.6,13.3,4.6
		C332.1,236.8,332.9,252.3,323.9,263.4z"/>
	<path fill="#010101" d="M341.7,205c-8.8-7.1-19.7-10.9-31.4-10.9c-16.9,0-33.8,8.3-44.9,22.1c-19.7,24.2-17.2,58.7,5.1,76.8
		c8.8,7.1,19.7,10.9,31.4,10.9c16.9,0,33.8-8.3,44.9-22.1C366.4,257.6,364.1,223.1,341.7,205z M340.8,277
		c-9.8,12.1-24.2,19.2-38.8,19.2c-9.9,0-19.1-3.1-26.4-9.2c-19.1-15.4-20.9-45-4-66c9.8-12.1,24.2-19.2,38.8-19.2
		c9.9,0,19.1,3.1,26.4,9.2C355.9,226.5,357.7,256,340.8,277z"/>
	<path fill="#010101" d="M436.8,4.1l-1.2-4l-3.9,1.4c-1,0.4-95.8,36.1-192.5,137.7c-1.9-1.1-4.5-1.7-7.8-1.7
		c-15.8,0-50.3,12.2-102.4,36.3c-25.4,11.7-73.7,97.2-75.6,100.8L47,286.2l11.7-6.2c0.6-0.2,55-28.7,87.7-28.7
		c2.2,0,4.2,0.1,6.2,0.4c-12.5,20-24.2,40.6-34.9,62l-2.9,5.8l7.4-0.1c15.4,0,151.5,3.1,171.2,113.5l1.3,6.8l5.2-4.6
		c5.8-5.2,26.8-24.4,51.5-55.4c35.9,11.5,15.9,92,15.7,92.9l-5.3,20.6l12.2-17.4c2.7-3.7,65.2-93.2,76.5-119.8
		c11-26-21.6-86-27.5-96.5C457.4,175.2,462.5,87.9,436.8,4.1z M146.3,243.5c-25.3,0-61.4,15.3-79.7,23.9
		c16.9-28.7,49-78.8,65.7-86.5c63.7-29.4,89-35.6,99.1-35.6c0.8,0,1.6,0,2.1,0.1c-28.2,30.4-53.9,63.4-76.7,99.1
		C153.7,243.8,150.2,243.5,146.3,243.5z M299.5,424.6c-23.3-101.8-142.3-112-172.2-113c10.7-21,22.4-41.4,35-60.9L241.8,148
		C327.4,56.9,412,18.3,430.7,10.4c28.9,98.2,16,197.1-38.2,294.3C357.2,367.7,315.3,409.9,299.5,424.6z M443.1,353
		c-8.1,19.3-46.2,75.6-65,103c4-25.9,6.4-71-21.8-82.7c14.1-18.1,29.1-39.8,42.9-64.8c7.4-13.1,13.9-26.4,19.8-39.8
		C430.8,290.9,450.7,334.8,443.1,353z"/>
	
		<rect x="237.7" y="396.7" transform="matrix(-0.856 -0.517 0.517 -0.856 227.8204 916.9668)" fill="#010101" width="7.8" height="60.2"/>
</g>
</svg>
